<svg width="134" height="218" viewBox="0 0 134 218" fill="none" xmlns="http://www.w3.org/2000/svg">
<g id="boy">
<g id="body">
<path id="Vector" d="M80.7451 127.656C80.3331 126.938 80.0734 126.132 79.9842 125.295C79.895 124.458 79.9785 123.61 80.2288 122.811C80.4791 122.013 80.89 121.282 81.4328 120.672C81.9755 120.061 82.6368 119.585 83.3701 119.278L82.6085 98.8146L91.1259 104.315L90.5433 122.904C90.9448 124.256 90.8687 125.718 90.3295 127.014C89.7903 128.31 88.8254 129.349 87.6176 129.935C86.4099 130.521 85.0432 130.612 83.7765 130.192C82.5099 129.772 81.4312 128.87 80.7451 127.656V127.656Z" fill="#A0616A"/>
<path id="Vector_2" d="M91.9593 114.302L84.6507 115.59C84.3439 115.644 84.0303 115.63 83.7285 115.548C83.4267 115.466 83.1429 115.319 82.8937 115.114C82.6445 114.909 82.4349 114.652 82.2775 114.356C82.1201 114.061 82.0179 113.733 81.977 113.394L78.8849 87.7152L63.6059 64.6586C63.0401 63.8047 62.639 62.832 62.4272 61.8006C62.2154 60.7692 62.1975 59.7008 62.3745 58.6614C62.5514 57.6221 62.9196 56.6337 63.4563 55.7572C63.993 54.8808 64.6868 54.1348 65.4949 53.5654L65.4944 53.5653C67.0637 52.4595 68.9671 52.0863 70.7859 52.528C72.6047 52.9697 74.1899 54.19 75.1927 55.9205L90.7973 82.8472L93.9031 111.463C93.923 111.646 93.9253 111.831 93.9099 112.014C93.8618 112.58 93.6439 113.113 93.2906 113.527C92.9373 113.941 92.4689 114.214 91.9593 114.302V114.302Z" fill="#FF8300"/>
<path id="Vector_3" d="M66.9096 209.546H60.599L57.597 182.852L66.9106 182.853L66.9096 209.546Z" fill="#A0616A"/>
<path id="Vector_4" d="M56.7715 207.569H68.7733V216.467H49.2148C49.2148 214.107 50.011 211.844 51.4281 210.175C52.8453 208.506 54.7674 207.569 56.7715 207.569V207.569Z" fill="#2F2E41"/>
<path id="Vector_5" d="M92.9886 197.994L88.4575 202.626L71.5674 183.487L77.442 177.909L92.9886 197.994Z" fill="#A0616A"/>
<path id="Vector_6" d="M84.1541 204.263L93.0923 195.3L98.0985 201.644L83.5325 216.251C82.8751 215.418 82.3697 214.447 82.0451 213.393C81.7206 212.34 81.5832 211.225 81.641 210.112C81.6987 208.999 81.9503 207.909 82.3816 206.906C82.8128 205.902 83.4151 205.004 84.1541 204.263V204.263Z" fill="#2F2E41"/>
<path id="Vector_7" d="M4.82165 55.461C5.55524 55.2726 6.31737 55.2637 7.0544 55.4351C7.79142 55.6065 8.4854 55.9539 9.08744 56.4528C9.68948 56.9518 10.185 57.5902 10.539 58.3231C10.8929 59.0559 11.0968 59.8655 11.1363 60.6946L28.725 66.3029L21.4859 73.109L5.89323 66.7397C4.62516 66.7205 3.40757 66.1892 2.47116 65.2465C1.53474 64.3038 0.944575 63.0153 0.812487 61.625C0.6804 60.2347 1.01559 58.8394 1.7545 57.7033C2.49341 56.5672 3.58472 55.7694 4.82165 55.461V55.461Z" fill="#A0616A"/>
<path id="Vector_8" d="M58.9941 35.5393C65.9382 35.5393 71.5674 29.3422 71.5674 21.6978C71.5674 14.0534 65.9382 7.85632 58.9941 7.85632C52.0501 7.85632 46.4208 14.0534 46.4208 21.6978C46.4208 29.3422 52.0501 35.5393 58.9941 35.5393Z" fill="#A0616A"/>
<path id="Vector_9" d="M67.7333 204.595L59.2367 203.813C58.6878 203.763 58.1742 203.482 57.794 203.025C57.4139 202.567 57.1938 201.964 57.1759 201.331L54.8044 119.022C54.7849 118.386 54.9715 117.764 55.328 117.277C55.6846 116.79 56.1857 116.473 56.7342 116.386L73.6739 113.669C74.0229 113.613 74.3785 113.653 74.7118 113.784C75.045 113.916 75.3466 114.136 75.5919 114.427C75.8373 114.717 76.0195 115.071 76.1238 115.457C76.2282 115.844 76.2516 116.254 76.1923 116.653L69.7101 160.287C69.6923 160.407 69.684 160.529 69.6853 160.651L70.1526 201.994C70.1565 202.335 70.1013 202.673 69.9903 202.99C69.8794 203.306 69.7148 203.594 69.5063 203.837C69.2977 204.08 69.0492 204.273 68.7753 204.404C68.5014 204.535 68.2074 204.603 67.9106 204.603C67.8516 204.603 67.7924 204.6 67.7333 204.595Z" fill="#2F2E41"/>
<path id="Vector_10" d="M78.6712 194.854L48.8695 157.584C48.6552 157.316 48.4934 157 48.3947 156.657C48.296 156.314 48.2624 155.952 48.2963 155.594L52.0601 115.943C52.1219 115.282 52.4094 114.674 52.862 114.247C53.3146 113.819 53.8971 113.605 54.487 113.651L72.777 115.021C73.1266 115.047 73.4662 115.163 73.7696 115.36C74.073 115.557 74.3321 115.83 74.5268 116.157C74.7215 116.485 74.8467 116.858 74.8927 117.249C74.9387 117.639 74.9043 118.036 74.7921 118.409L63.8335 154.839C63.7283 155.186 63.7105 155.559 63.782 155.917C63.8535 156.275 64.0116 156.604 64.2388 156.867L89.5531 186.348C89.7931 186.627 89.9735 186.964 90.081 187.333C90.1886 187.702 90.2203 188.094 90.1738 188.478C90.1274 188.863 90.004 189.231 89.813 189.555C89.6219 189.878 89.3681 190.149 89.0707 190.346L81.5367 195.349C81.0814 195.65 80.5476 195.765 80.0255 195.675C79.5034 195.585 79.025 195.295 78.6711 194.854L78.6712 194.854Z" fill="#2F2E41"/>
<path id="Vector_11" d="M56.5575 45.0872C56.5575 45.0872 64.0465 37.6696 67.5413 41.6637C67.5413 41.6637 83.7673 53.3606 76.7777 85.3134C76.7777 85.3134 82.7688 116.125 80.2725 117.266C77.7762 118.407 52.5635 122.687 50.5664 119.263C48.5694 115.84 47.5708 63.3459 56.5575 45.0872Z" fill="#FF8300"/>
<path id="Vector_12" d="M12.9226 71.435L14.0801 63.4977C14.1288 63.1645 14.2361 62.8456 14.3958 62.5598C14.5555 62.2741 14.7644 62.0273 15.0101 61.8341C15.2557 61.6408 15.5333 61.505 15.8263 61.4346C16.1193 61.3642 16.4218 61.3608 16.716 61.4243L38.9574 66.2302L62.735 57.653C63.6156 57.3354 64.5445 57.2246 65.4646 57.3273C66.3846 57.43 67.2762 57.7441 68.0845 58.2502C68.8927 58.7563 69.6005 59.4437 70.164 60.2699C70.7276 61.0962 71.1351 62.0439 71.3613 63.0545L71.3616 63.054C71.801 65.0165 71.5308 67.0954 70.6106 68.8334C69.6904 70.5715 68.1955 71.8262 66.4547 72.3215L39.3679 80.0297L14.6855 74.3233C14.528 74.287 14.3743 74.232 14.2271 74.1591C13.7719 73.9332 13.3966 73.5427 13.1604 73.0493C12.9241 72.556 12.8405 71.988 12.9226 71.435V71.435Z" fill="#FF8300"/>
<path id="Vector_13" d="M64.1154 33.0988C65.252 30.1267 66.2139 26.1686 64.0337 24.0674C62.7692 22.8485 60.9477 22.846 59.2909 22.6944C54.6232 22.2672 49.8183 19.8407 47.5367 15.2201C45.2552 10.5995 46.5294 3.72887 50.8336 1.64421C53.7349 0.239013 57.0611 1.19626 60.0981 2.16924L69.2165 5.09058C71.9258 5.9586 74.7705 6.91587 76.721 9.21088C79.8317 12.8711 79.5991 19.0585 77.1284 23.296C74.6577 27.5335 70.9369 31.953 66.6773 33.5619L64.1154 33.0988Z" fill="#2F2E41"/>
</g>
<g id="line">
<path id="Vector_14" d="M132.53 217.456H6.87909C6.74472 217.456 6.61586 217.404 6.52084 217.311C6.42582 217.218 6.37244 217.093 6.37244 216.961C6.37244 216.83 6.42582 216.705 6.52084 216.612C6.61586 216.519 6.74472 216.467 6.87909 216.467H132.53C132.665 216.467 132.794 216.519 132.889 216.612C132.984 216.705 133.037 216.83 133.037 216.961C133.037 217.093 132.984 217.218 132.889 217.311C132.794 217.404 132.665 217.456 132.53 217.456Z" fill="#3F3D56"/>
</g>
</g>
</svg>
